<svg width="429" height="342" viewBox="0 0 429 342" fill="none" xmlns="http://www.w3.org/2000/svg">
<path d="M23.8235 180.687L17.7772 99.6527L49.9812 90.5437C54.9295 89.1441 59.3909 88.4469 63.3653 88.452C67.3963 88.3543 70.947 89.1308 74.0175 90.7816C77.1678 92.4097 79.8895 94.941 82.1825 98.3754C84.5553 101.787 86.5345 106.222 88.1199 111.681C89.822 117.541 90.7308 123.495 90.8465 129.544C91.042 135.569 90.065 141.275 87.9154 146.661C85.7659 152.047 82.2941 156.895 77.5 161.204C72.7624 165.411 66.3232 168.666 58.1824 170.968L23.8235 180.687ZM54.178 162.98C56.8118 162.235 58.8115 160.496 60.1773 157.764C61.5996 154.93 62.5394 151.623 62.9967 147.846C63.5106 143.965 63.6518 139.842 63.4205 135.477C63.2456 131.009 62.8779 126.77 62.3174 122.758C61.8368 118.724 61.2732 115.148 60.6266 112.03C60.0599 108.889 59.59 106.677 59.2169 105.392C58.4941 102.904 57.4158 101.124 55.9819 100.053C54.6044 98.8787 52.6787 98.6416 50.2045 99.3414L44.4581 100.967L49.0301 164.436L54.178 162.98Z" fill="#fff"/>
<path d="M125.377 94.4973C134.875 91.8109 142.268 91.5439 147.557 93.6965C153.132 95.9418 157.109 101.159 159.487 109.347C160.956 114.404 161.447 119.217 160.96 123.785C160.45 128.273 159.063 132.27 156.8 135.777C152.226 142.631 144.193 147.683 132.7 150.933C122.883 153.71 115.312 153.81 109.986 151.234C104.294 148.587 100.306 143.33 98.0211 135.463C96.5056 130.245 96.1675 125.215 97.0069 120.374C97.9261 115.51 99.9729 111.108 103.147 107.17C107.831 101.588 115.241 97.3643 125.377 94.4973ZM130.561 142.678C132.557 142.113 133.946 140.504 134.73 137.85C135.594 135.173 135.998 132.105 135.943 128.646C135.865 125.106 135.524 121.554 134.921 117.989C134.374 114.322 133.727 111.204 132.981 108.635C132.328 106.387 131.599 104.769 130.794 103.78C130.045 102.689 128.953 102.347 127.516 102.753C125.361 103.363 123.824 105.057 122.904 107.837C122.063 110.594 121.631 113.713 121.605 117.195C121.58 120.677 121.818 124.171 122.318 127.678C122.899 131.163 123.492 133.949 124.098 136.036C125.613 141.254 127.768 143.468 130.561 142.678Z" fill="#fff"/>
<path d="M183.112 79.6002C185.879 78.1227 188.263 76.6666 190.264 75.2317C192.266 73.7969 194.01 72.2178 195.496 70.4944C197.061 68.7485 198.426 66.7554 199.589 64.5153C200.832 62.2526 202.078 59.5546 203.327 56.4214L215.658 52.9336L216.873 70.0511L226.21 67.4098L226.997 75.9177L217.54 78.5929L219.451 103.462C219.588 105.421 219.747 107.157 219.927 108.67C220.108 110.182 220.314 111.34 220.547 112.143C221.014 113.748 221.864 114.594 223.098 114.679C224.412 114.742 226.665 114.322 229.857 113.419L230.475 122.235C229.962 122.554 229.12 122.923 227.946 123.342C226.852 123.738 225.598 124.179 224.185 124.666C222.874 125.21 221.461 125.697 219.945 126.126C218.531 126.612 217.266 127.014 216.149 127.33C214.153 127.894 212.151 128.287 210.143 128.507C208.157 128.808 206.29 128.772 204.54 128.398C202.767 127.944 201.169 127.05 199.745 125.715C198.401 124.358 197.332 122.315 196.539 119.585C196.26 118.622 195.95 117.406 195.61 115.939C195.35 114.449 195.163 112.764 195.049 110.885L193.117 85.5008L183.779 88.142L183.112 79.6002Z" fill="#fff"/>
<path d="M259.288 66.3933L260.126 66.1563C261.2 64.2021 262.547 62.3007 264.17 60.4519C265.519 58.8539 267.223 57.2861 269.281 55.7484C271.339 54.2107 273.805 53.0355 276.678 52.2228C280.828 51.0489 284.575 51.1619 287.918 52.5618C291.238 53.8815 293.434 56.3876 294.507 60.0803C294.833 61.2042 295.086 62.5225 295.267 64.0351C295.424 65.4676 295.576 67.0317 295.723 68.7275C295.846 70.343 295.942 72.01 296.009 73.7284C296.133 75.3439 296.262 76.8278 296.395 78.1799L298.187 103.083L273.884 109.957L271.341 76.6664C271.197 75.5777 271.094 74.4777 271.03 73.3663C270.943 72.1748 270.771 71.1374 270.515 70.2544C270.165 69.0503 269.566 68.1773 268.718 67.6354C267.926 66.9907 266.931 66.8376 265.734 67.1762C264.297 67.5826 263.052 68.4994 261.999 69.9268C261.025 71.3316 260.295 72.5369 259.81 73.5429L262.751 113.106L238.328 120.014L231.826 34.2874L256.368 27.3457L259.288 66.3933Z" fill="#fff"/>
<path d="M328.741 68.249C328.935 70.1054 329.185 71.8589 329.492 73.5096C329.878 75.1377 330.258 76.5939 330.631 77.8783C330.841 78.6008 331.114 79.3923 331.45 80.2527C331.786 81.1132 332.191 81.9109 332.663 82.646C333.193 83.2781 333.778 83.8075 334.42 84.234C335.119 84.5576 335.947 84.584 336.905 84.3131C337.623 84.1099 338.351 83.6433 339.089 82.9133C339.907 82.1608 340.627 81.2188 341.248 80.0875C341.949 78.9335 342.513 77.6015 342.938 76.0913C343.442 74.5586 343.701 72.9218 343.714 71.1808L363.347 65.6274L363.977 79.3921C362.684 80.8871 361.105 82.2894 359.239 83.5988C357.374 84.9083 355.354 86.1311 353.179 87.2675C350.981 88.3235 348.709 89.2704 346.361 90.1082C344.037 91.0263 341.797 91.7901 339.642 92.3996C335.651 93.5284 331.835 94.2168 328.193 94.4651C324.552 94.7133 321.197 94.3156 318.131 93.2719C315.064 92.2282 312.352 90.4759 309.996 88.0149C307.697 85.451 305.918 82.0017 304.659 77.6668C303.516 73.7332 302.996 69.7107 303.097 65.5991C303.278 61.465 304.386 57.5466 306.42 53.8439C308.51 50.0385 311.733 46.5642 316.089 43.421C320.524 40.2553 326.413 37.634 333.756 35.5571C341.737 33.2997 348.084 32.8508 352.797 34.2106C357.591 35.5479 360.757 38.8656 362.296 44.1638C362.925 46.3312 363.294 48.7897 363.401 51.5391C363.486 54.2082 363.146 56.6065 362.382 58.7337L328.741 68.249ZM340.502 49.4161C339.779 46.9276 338.89 45.3546 337.836 44.6973C336.781 44.0401 335.695 43.8694 334.578 44.1855C333.301 44.5467 332.232 45.3268 331.371 46.5259C330.566 47.6221 329.935 49.0169 329.477 50.7102C328.995 52.3232 328.663 54.1545 328.481 56.204C328.276 58.1732 328.225 60.229 328.329 62.3714L341.977 58.5111C341.857 57.5026 341.725 56.454 341.582 55.3653C341.485 54.4371 341.325 53.4399 341.101 52.3737C340.958 51.285 340.758 50.2991 340.502 49.4161Z" fill="#fff"/>
<path d="M121.19 244.274L101.915 249.726L107.219 321.067L81.3599 328.381L76.0561 257.04L57.0211 262.424L56.518 252.663L120.567 234.547L121.19 244.274Z" fill="#fff"/>
<path d="M158.779 222.435C165.643 220.494 171.446 219.808 176.189 220.378C181.012 220.925 185.197 222.695 188.744 225.688C191.063 227.725 193.116 230.184 194.903 233.067C196.69 235.949 198.178 239.438 199.367 243.532C200.393 247.064 201.1 250.686 201.487 254.399C201.875 258.112 201.948 261.783 201.707 265.413C201.522 268.94 201.011 272.385 200.174 275.749C199.394 279.011 198.321 282.007 196.956 284.739C194.393 289.894 190.883 294.014 186.424 297.1C182.022 300.082 176.23 302.589 169.047 304.621C162.103 306.585 156.306 307.443 151.657 307.194C147.007 306.946 142.979 305.566 139.572 303.055C137.163 301.304 134.939 298.849 132.899 295.691C130.938 292.51 129.2 288.31 127.685 283.092C125.097 274.182 124.345 265.794 125.429 257.93C126.57 249.963 129.459 243.108 134.096 237.366C136.885 233.884 140.259 230.932 144.219 228.508C148.179 226.085 153.033 224.061 158.779 222.435ZM165.641 296.463C167.476 295.944 168.959 294.656 170.089 292.599C171.275 290.439 172.151 287.802 172.715 284.689C173.335 281.473 173.691 277.941 173.783 274.093C173.954 270.222 173.891 266.287 173.593 262.289C173.295 258.29 172.81 254.388 172.136 250.582C171.519 246.674 170.768 243.194 169.882 240.144C168.67 235.97 167.403 233.244 166.082 231.967C164.817 230.587 163.387 230.123 161.791 230.575C159.955 231.094 158.433 232.393 157.223 234.473C156.013 236.553 155.046 239.171 154.323 242.33C153.656 245.385 153.236 248.848 153.065 252.719C152.95 256.487 152.99 260.341 153.185 264.282C153.459 268.201 153.881 272.034 154.452 275.782C155.102 279.507 155.87 282.895 156.756 285.946C158.085 290.521 159.485 293.557 160.956 295.052C162.483 296.444 164.044 296.915 165.641 296.463Z" fill="#fff"/>
<path d="M214.088 290.839L208.042 209.805L240.246 200.696C245.194 199.296 249.656 198.599 253.63 198.604C257.661 198.506 261.212 199.283 264.282 200.933C267.432 202.562 270.154 205.093 272.447 208.527C274.82 211.939 276.799 216.374 278.385 221.833C280.087 227.693 280.995 233.647 281.111 239.696C281.307 245.721 280.33 251.427 278.18 256.813C276.031 262.199 272.559 267.046 267.765 271.356C263.027 275.563 256.588 278.818 248.447 281.12L214.088 290.839ZM244.443 273.131C247.076 272.386 249.076 270.648 250.442 267.916C251.864 265.082 252.804 261.775 253.261 257.997C253.775 254.117 253.916 249.994 253.685 245.629C253.51 241.161 253.143 236.921 252.582 232.91C252.101 228.876 251.538 225.3 250.891 222.182C250.325 219.041 249.855 216.829 249.482 215.544C248.759 213.056 247.68 211.276 246.247 210.205C244.869 209.031 242.943 208.793 240.469 209.493L234.723 211.119L239.295 274.588L244.443 273.131Z" fill="#fff"/>
<path d="M320 176.834C326.864 174.892 332.667 174.207 337.41 174.776C342.233 175.323 346.418 177.093 349.965 180.086C352.284 182.123 354.337 184.583 356.124 187.465C357.911 190.348 359.399 193.836 360.588 197.93C361.614 201.462 362.321 205.085 362.708 208.797C363.096 212.51 363.169 216.181 362.928 219.811C362.743 223.338 362.232 226.784 361.395 230.148C360.615 233.409 359.542 236.406 358.177 239.137C355.614 244.292 352.104 248.413 347.645 251.498C343.243 254.481 337.451 256.988 330.268 259.02C323.324 260.984 317.527 261.841 312.878 261.593C308.228 261.344 304.2 259.965 300.793 257.453C298.384 255.702 296.16 253.247 294.12 250.089C292.159 246.908 290.421 242.709 288.906 237.491C286.318 228.58 285.566 220.193 286.65 212.328C287.791 204.361 290.68 197.506 295.317 191.764C298.106 188.282 301.48 185.33 305.44 182.907C309.4 180.484 314.254 178.459 320 176.834ZM326.862 250.862C328.697 250.342 330.18 249.054 331.31 246.997C332.496 244.837 333.372 242.201 333.936 239.088C334.556 235.872 334.912 232.34 335.004 228.491C335.175 224.621 335.112 220.686 334.814 216.687C334.516 212.688 334.031 208.786 333.357 204.981C332.74 201.072 331.989 197.593 331.103 194.542C329.891 190.368 328.624 187.642 327.303 186.366C326.038 184.986 324.608 184.522 323.012 184.973C321.176 185.492 319.654 186.792 318.444 188.871C317.234 190.951 316.267 193.57 315.544 196.728C314.877 199.784 314.457 203.247 314.286 207.118C314.171 210.885 314.211 214.74 314.406 218.681C314.68 222.599 315.102 226.432 315.673 230.18C316.323 233.906 317.091 237.293 317.977 240.344C319.306 244.92 320.706 247.955 322.177 249.45C323.704 250.843 325.265 251.313 326.862 250.862Z" fill="#fff"/>
<path d="M35.0977 188.599L29.0852 107.547L61.285 98.4231C66.2327 97.0212 70.6932 96.322 74.6667 96.3256C78.6967 96.2263 82.2462 97.0016 85.3153 98.6516C88.4642 100.279 91.1842 102.81 93.4753 106.244C95.8462 109.656 97.8231 114.091 99.406 119.551C101.105 125.412 102.012 131.367 102.125 137.417C102.318 143.444 101.339 149.152 99.1876 154.54C97.0364 159.928 93.5635 164.778 88.7689 169.091C84.0307 173.3 77.5918 176.558 69.4521 178.865L35.0977 188.599ZM65.4518 170.875C68.0852 170.129 70.0852 168.39 71.4517 165.657C72.8748 162.821 73.8157 159.513 74.2744 155.734C74.7897 151.852 74.9326 147.728 74.703 143.362C74.53 138.893 74.1641 134.653 73.6053 130.641C73.1264 126.606 72.5644 123.03 71.9192 119.911C71.3539 116.769 70.885 114.556 70.5125 113.272C69.7909 110.783 68.7135 109.003 67.2804 107.932C65.9038 106.758 63.9785 106.522 61.5047 107.223L55.759 108.851L60.3046 172.334L65.4518 170.875Z" fill="#fff" fill-opacity="0.75"/>
<path d="M136.661 102.348C146.157 99.6574 153.549 99.3876 158.836 101.539C164.409 103.782 168.383 108.999 170.757 117.188C172.223 122.246 172.712 127.06 172.224 131.629C171.712 136.119 170.324 140.118 168.059 143.626C163.484 150.483 155.451 155.54 143.96 158.796C134.144 161.577 126.575 161.68 121.251 159.105C115.562 156.46 111.576 151.203 109.295 143.335C107.782 138.116 107.446 133.085 108.287 128.242C109.208 123.377 111.256 118.973 114.432 115.033C119.117 109.448 126.526 105.22 136.661 102.348ZM141.825 150.538C143.82 149.973 145.21 148.363 145.994 145.708C146.859 143.03 147.264 139.961 147.211 136.501C147.134 132.961 146.795 129.408 146.193 125.842C145.648 122.174 145.003 119.055 144.258 116.486C143.606 114.238 142.878 112.62 142.073 111.632C141.325 110.54 140.232 110.198 138.796 110.605C136.641 111.216 135.104 112.911 134.183 115.692C133.341 118.45 132.908 121.57 132.881 125.053C132.855 128.536 133.091 132.031 133.59 135.539C134.168 139.024 134.76 141.81 135.366 143.898C136.879 149.116 139.032 151.33 141.825 150.538Z" fill="#fff" fill-opacity="0.75"/>
<path d="M194.388 87.425C197.154 85.946 199.538 84.4886 201.54 83.0526C203.542 81.6166 205.286 80.0364 206.772 78.3121C208.338 76.5651 209.703 74.571 210.867 72.3299C212.11 70.0661 213.357 67.367 214.607 64.2325L226.936 60.739L228.144 77.8603L237.481 75.2147L238.264 83.7245L228.807 86.4039L230.708 111.278C230.845 113.238 231.003 114.974 231.182 116.487C231.362 118 231.568 119.158 231.801 119.961C232.267 121.567 233.116 122.412 234.35 122.497C235.663 122.559 237.916 122.138 241.108 121.234L241.722 130.052C241.21 130.371 240.367 130.74 239.193 131.16C238.099 131.557 236.846 131.999 235.432 132.486C234.122 133.031 232.709 133.518 231.193 133.948C229.78 134.435 228.515 134.837 227.397 135.154C225.402 135.719 223.401 136.112 221.392 136.334C219.407 136.636 217.54 136.6 215.791 136.227C214.019 135.773 212.421 134.879 210.998 133.545C209.655 132.188 208.587 130.144 207.796 127.415C207.517 126.451 207.207 125.236 206.868 123.768C206.609 122.277 206.422 120.593 206.309 118.713L204.388 93.3231L195.052 95.9686L194.388 87.425Z" fill="#fff" fill-opacity="0.75"/>
<path d="M270.551 74.1851L271.389 73.9477C272.463 71.9926 273.811 70.0901 275.433 68.2403C276.783 66.6414 278.487 65.0725 280.546 63.5336C282.604 61.9948 285.069 60.8183 287.942 60.0043C292.092 58.8285 295.837 58.9401 299.179 60.339C302.498 61.6577 304.692 64.1636 305.763 67.8568C306.089 68.9808 306.342 70.2993 306.521 71.8123C306.678 73.245 306.829 74.8095 306.975 76.5056C307.098 78.1215 307.193 79.7889 307.26 81.5077C307.383 83.1236 307.511 84.6077 307.644 85.9602L309.425 110.869L285.126 117.754L282.596 84.4561C282.453 83.3671 282.35 82.2668 282.287 81.1553C282.2 79.9634 282.029 78.9259 281.773 78.0428C281.424 76.8385 280.825 75.9655 279.977 75.4238C279.186 74.7792 278.192 74.6265 276.995 74.9657C275.558 75.3727 274.313 76.2903 273.259 77.7184C272.285 79.1239 271.555 80.3298 271.07 81.3362L273.994 120.908L249.574 127.827L243.108 42.0819L267.647 35.1288L270.551 74.1851Z" fill="#fff" fill-opacity="0.75"/>
<path d="M339.986 76.0142C340.179 77.8709 340.428 79.6248 340.734 81.2758C341.12 82.9041 341.499 84.3606 341.871 85.6452C342.081 86.3677 342.354 87.1593 342.689 88.0198C343.025 88.8804 343.429 89.6782 343.902 90.4132C344.43 91.0453 345.015 91.5746 345.657 92.0009C346.356 92.3244 347.183 92.3504 348.141 92.0791C348.859 91.8756 349.587 91.4086 350.326 90.6782C351.144 89.9251 351.863 88.9826 352.485 87.8507C353.187 86.6962 353.75 85.3636 354.176 83.8529C354.681 82.3196 354.941 80.6823 354.954 78.9409L374.585 73.3784L375.209 87.1463C373.915 88.6423 372.336 90.0455 370.471 91.356C368.605 92.6664 366.585 93.8904 364.411 95.0279C362.213 96.085 359.94 97.0331 357.593 97.872C355.269 98.7912 353.029 99.5561 350.875 100.167C346.884 101.297 343.069 101.987 339.428 102.237C335.787 102.487 332.434 102.09 329.368 101.047C326.302 100.005 323.592 98.253 321.238 95.7923C318.94 93.2287 317.163 89.7792 315.906 85.4437C314.765 81.5096 314.246 77.4863 314.349 73.3736C314.532 69.2384 315.641 65.3186 317.676 61.6142C319.767 57.807 322.991 54.3306 327.346 51.1849C331.782 48.0167 337.671 45.3925 345.012 43.3122C352.993 41.0511 359.338 40.5996 364.05 41.9579C368.842 43.2936 372.005 46.611 373.542 51.9099C374.17 54.0776 374.538 56.5365 374.644 59.2866C374.728 61.9564 374.387 64.3553 373.622 66.4834L339.986 76.0142ZM351.751 57.172C351.029 54.6831 350.142 53.1101 349.088 52.4531C348.033 51.7961 346.948 51.6258 345.831 51.9424C344.554 52.3042 343.485 53.0849 342.624 54.2846C341.819 55.3815 341.187 56.7768 340.728 58.4707C340.246 60.0843 339.914 61.9162 339.731 63.9663C339.525 65.9361 339.474 67.9924 339.577 70.1352L353.223 66.2687C353.103 65.26 352.972 64.2112 352.829 63.1222C352.732 62.1939 352.572 61.1965 352.35 60.1301C352.207 59.0412 352.007 58.0552 351.751 57.172Z" fill="#fff" fill-opacity="0.75"/>
<path d="M132.415 252.164L113.143 257.625L118.417 328.981L92.5611 336.307L87.287 264.951L68.2545 270.344L67.7554 260.581L131.796 242.435L132.415 252.164Z" fill="#fff" fill-opacity="0.75"/>
<path d="M170.004 230.305C176.867 228.361 182.669 227.672 187.411 228.24C192.232 228.786 196.415 230.554 199.96 233.547C202.277 235.583 204.329 238.043 206.114 240.925C207.9 243.808 209.387 247.296 210.574 251.391C211.598 254.924 212.303 258.547 212.689 262.26C213.075 265.974 213.146 269.646 212.904 273.277C212.717 276.805 212.206 280.251 211.368 283.617C210.586 286.879 209.512 289.876 208.146 292.61C205.582 297.767 202.071 301.89 197.612 304.977C193.21 307.963 187.418 310.473 180.236 312.508C173.293 314.475 167.498 315.335 162.849 315.088C158.201 314.842 154.174 313.463 150.769 310.952C148.362 309.202 146.139 306.747 144.1 303.589C142.142 300.408 140.406 296.208 138.893 290.989C136.309 282.078 135.561 273.688 136.648 265.822C137.791 257.852 140.682 250.994 145.321 245.249C148.11 241.765 151.485 238.811 155.445 236.385C159.405 233.96 164.258 231.933 170.004 230.305ZM176.834 304.349C178.669 303.829 180.152 302.54 181.283 300.482C182.47 298.321 183.346 295.683 183.911 292.569C184.533 289.352 184.89 285.819 184.983 281.97C185.156 278.098 185.094 274.162 184.798 270.163C184.502 266.163 184.018 262.26 183.347 258.454C182.731 254.545 181.981 251.065 181.097 248.014C179.886 243.839 178.621 241.113 177.301 239.837C176.037 238.457 174.608 237.993 173.012 238.445C171.176 238.966 169.653 240.266 168.443 242.346C167.233 244.427 166.265 247.047 165.54 250.206C164.872 253.263 164.452 256.727 164.279 260.599C164.163 264.368 164.201 268.223 164.394 272.165C164.667 276.084 165.087 279.918 165.656 283.667C166.305 287.393 167.071 290.781 167.956 293.832C169.283 298.408 170.681 301.444 172.151 302.939C173.677 304.331 175.238 304.801 176.834 304.349Z" fill="#fff" fill-opacity="0.75"/>
<path d="M225.272 298.704L219.26 217.652L251.459 208.528C256.407 207.126 260.868 206.427 264.841 206.431C268.871 206.332 272.421 207.107 275.49 208.757C278.639 210.384 281.359 212.915 283.65 216.349C286.021 219.761 287.997 224.197 289.58 229.656C291.28 235.517 292.186 241.472 292.299 247.522C292.492 253.549 291.513 259.257 289.362 264.645C287.211 270.033 283.738 274.883 278.943 279.196C274.205 283.405 267.766 286.663 259.626 288.97L225.272 298.704ZM255.626 280.981C258.26 280.234 260.26 278.495 261.626 275.762C263.049 272.926 263.99 269.618 264.449 265.839C264.964 261.957 265.107 257.833 264.877 253.467C264.704 248.999 264.338 244.758 263.78 240.746C263.301 236.711 262.739 233.135 262.094 230.016C261.528 226.875 261.059 224.662 260.687 223.377C259.965 220.888 258.888 219.108 257.455 218.037C256.078 216.864 254.153 216.627 251.679 217.328L245.933 218.956L250.479 282.439L255.626 280.981Z" fill="#fff" fill-opacity="0.75"/>
<path d="M331.204 184.63C338.067 182.685 343.869 181.997 348.611 182.565C353.432 183.11 357.615 184.879 361.16 187.871C363.477 189.907 365.529 192.367 367.314 195.249C369.1 198.132 370.587 201.621 371.774 205.715C372.798 209.248 373.503 212.871 373.889 216.584C374.275 220.298 374.346 223.97 374.104 227.601C373.917 231.129 373.406 234.576 372.568 237.941C371.786 241.203 370.712 244.201 369.346 246.934C366.782 252.091 363.271 256.214 358.812 259.302C354.41 262.287 348.618 264.797 341.436 266.832C334.493 268.799 328.698 269.659 324.049 269.412C319.401 269.166 315.374 267.787 311.969 265.277C309.562 263.526 307.339 261.072 305.3 257.913C303.342 254.732 301.606 250.532 300.093 245.314C297.509 236.402 296.761 228.013 297.848 220.146C298.991 212.176 301.882 205.319 306.521 199.573C309.31 196.09 312.685 193.135 316.645 190.71C320.605 188.284 325.458 186.258 331.204 184.63ZM338.034 258.673C339.869 258.153 341.352 256.864 342.483 254.806C343.67 252.645 344.546 250.008 345.111 246.893C345.733 243.676 346.09 240.143 346.183 236.294C346.356 232.422 346.294 228.487 345.998 224.487C345.702 220.487 345.218 216.585 344.547 212.778C343.931 208.869 343.181 205.389 342.297 202.338C341.086 198.163 339.821 195.438 338.501 194.161C337.237 192.781 335.808 192.317 334.212 192.77C332.376 193.29 330.853 194.59 329.643 196.671C328.433 198.751 327.465 201.371 326.74 204.531C326.072 207.587 325.652 211.051 325.479 214.923C325.363 218.692 325.401 222.547 325.594 226.489C325.867 230.408 326.287 234.242 326.856 237.991C327.505 241.717 328.271 245.105 329.156 248.156C330.483 252.733 331.881 255.768 333.351 257.263C334.877 258.655 336.438 259.125 338.034 258.673Z" fill="#fff" fill-opacity="0.75"/>
</svg>
